<?xml version="1.0" encoding="utf-8"?>
<!-- Generator: Adobe Illustrator 16.0.4, SVG Export Plug-In . SVG Version: 6.00 Build 0)  -->
<!DOCTYPE svg PUBLIC "-//W3C//DTD SVG 1.1//EN" "http://www.w3.org/Graphics/SVG/1.1/DTD/svg11.dtd">
<svg version="1.1" id="Layer_1" xmlns="http://www.w3.org/2000/svg" xmlns:xlink="http://www.w3.org/1999/xlink" x="0px" y="0px"
	 width="536px" height="54px" viewBox="0 0 536 54" enable-background="new 0 0 536 54" xml:space="preserve">
<g>
	<g>
		<path fill="#FFFFFF" d="M41.929,52.83h-8.292l-7.232-38.348L19.247,52.83h-8.29L1.386,2.357h8.716l4.968,38.278l6.941-38.278h8.79
			l7.027,38.278l4.886-38.278h8.714L41.929,52.83z"/>
		<path fill="#FFFFFF" d="M75.948,52.83V30.711h-9.845V52.83h-7.943V2.357h7.943v21.265h9.845V2.357h7.943V52.83H75.948z"/>
		<path fill="#FFFFFF" d="M113.042,52.83l-2.061-9.993H99.292l-1.984,9.993h-8.362l12.393-50.473h7.736l12.262,50.473H113.042z
			 M105.172,14.551l-4.324,21.119h8.648L105.172,14.551z"/>
		<path fill="#FFFFFF" d="M138.843,9.519V52.83h-7.935V9.519h-8.437V2.357h24.876v7.161H138.843z"/>
		<path fill="#FFFFFF" d="M189.511,52.648V21.176l-6.867,20.697h-4.397l-6.728-20.345v31.12h-7.945V2.185h7.151l9.79,26.508
			l9.706-26.508h7.235v50.464H189.511z"/>
		<path fill="#FFFFFF" d="M228.02,52.648l-2.057-9.987h-11.688l-1.989,9.987h-8.363L216.32,2.185h7.729l12.265,50.464H228.02z
			 M220.147,14.374l-4.313,21.124h8.643L220.147,14.374z"/>
		<polygon fill="#FFFFFF" points="261.457,2.185 255.026,2.185 236.58,2.185 236.58,9.337 245.013,9.337 245.013,52.648 
			252.952,52.648 252.952,9.337 255.026,9.337 261.457,9.337 273.269,9.337 273.269,52.648 281.213,52.648 281.213,9.337 
			289.718,9.337 289.718,2.185 		"/>
		<path fill="#FFFFFF" d="M297.174,52.648V2.185h21.197v7.152h-13.259v14.32h11.409v7.163h-11.409v14.677h13.259v7.151H297.174z"/>
		<path fill="#FFFFFF" d="M346.165,52.648l-6.582-20.698l-4.472,3.746v16.952h-7.939V2.185h12.763
			c9.214,0,12.895,4.462,12.895,14.88c0,6.236-1.272,10.705-5.883,13.185l7.521,22.399H346.165z M340.002,9.337h-4.891v19.206
			l4.891-3.377c3.464-2.153,4.888-4.293,4.888-8.102C344.89,12.885,344.258,9.337,340.002,9.337z"/>
		<path fill="#FFFFFF" d="M381.723,49.816c-2.057,1.978-5.385,3.332-9.844,3.332c-4.402,0-7.667-1.209-9.779-3.332
			c-2.419-2.415-3.274-5.532-3.274-10.846h7.946c0,2.69,0.278,4.399,1.419,5.668c0.704,0.78,1.905,1.347,3.688,1.347
			c1.838,0,3.051-0.488,3.821-1.419c1.067-1.196,1.353-2.905,1.353-5.596c0-5.388-0.861-6.736-4.76-8.295l-6.02-2.479
			c-5.112-2.129-7.012-4.896-7.012-12.694c0-4.535,1.334-8.217,4.1-10.701c2.203-1.908,5.029-3.042,8.651-3.042
			c4.045,0,7.024,1.06,9.067,3.042c2.632,2.551,3.549,6.166,3.549,10.994h-7.938c0-2.273-0.142-4.046-1.198-5.397
			c-0.709-0.916-1.853-1.489-3.56-1.489c-1.619,0-2.608,0.573-3.395,1.423c-0.918,1.066-1.342,2.768-1.342,4.964
			c0,4.104,0.638,5.387,4.184,6.801l5.953,2.41c6.021,2.484,7.653,5.674,7.653,14.181C384.986,43.856,384.282,47.33,381.723,49.816z
			"/>
		<path fill="#FFFFFF" d="M428.023,52.648V21.176l-6.886,20.697h-4.393l-6.726-20.345v31.12h-7.947V2.185h7.163l9.779,26.508
			l9.713-26.508h7.239v50.464H428.023z"/>
		<path fill="#FFFFFF" d="M468.297,48.964c-2.123,2.408-4.961,4.251-9.777,4.251c-4.829,0-7.656-1.843-9.779-4.251
			c-3.755-4.252-3.688-11.628-3.688-21.549c0-9.918-0.067-17.293,3.688-21.545c2.123-2.408,4.95-4.258,9.779-4.258
			c4.816,0,7.654,1.85,9.777,4.258c3.755,4.252,3.688,11.627,3.688,21.545C471.984,37.336,472.052,44.712,468.297,48.964z
			 M462.352,10.688c-0.714-1.135-1.909-1.916-3.832-1.916c-1.912,0-3.051,0.781-3.755,1.916c-1.498,2.411-1.766,7.51-1.766,16.727
			c0,9.211,0.268,14.313,1.766,16.724c0.704,1.135,1.843,1.925,3.755,1.925c1.923,0,3.118-0.79,3.832-1.925
			c1.486-2.41,1.699-7.513,1.699-16.724C464.051,18.198,463.838,13.1,462.352,10.688z"/>
		<path fill="#FFFFFF" d="M501.253,49.816c-2.068,1.978-5.397,3.332-9.856,3.332c-4.402,0-7.666-1.209-9.789-3.332
			c-2.403-2.415-3.252-5.532-3.252-10.846h7.935c0,2.69,0.277,4.399,1.419,5.668c0.704,0.78,1.909,1.347,3.688,1.347
			c1.833,0,3.051-0.488,3.822-1.419c1.071-1.196,1.352-2.905,1.352-5.596c0-5.388-0.861-6.736-4.75-8.295l-6.034-2.479
			c-5.106-2.129-7.006-4.896-7.006-12.694c0-4.535,1.339-8.217,4.112-10.701c2.189-1.908,5.017-3.042,8.638-3.042
			c4.046,0,7.02,1.06,9.075,3.042c2.624,2.551,3.542,6.166,3.542,10.994h-7.935c0-2.273-0.146-4.046-1.208-5.397
			c-0.704-0.916-1.843-1.489-3.552-1.489c-1.621,0-2.616,0.573-3.397,1.423c-0.918,1.066-1.342,2.768-1.342,4.964
			c0,4.104,0.638,5.387,4.179,6.801l5.969,2.41c6.011,2.484,7.643,5.674,7.643,14.181C504.504,43.856,503.8,47.33,501.253,49.816z"
			/>
		<path fill="#FFFFFF" d="M525.525,9.337v43.312h-7.934V9.337h-8.438V2.185h24.887v7.152H525.525z"/>
	</g>
</g>
</svg>
