<?xml version="1.0" encoding="utf-8"?>
<!-- Generator: Adobe Illustrator 16.0.4, SVG Export Plug-In . SVG Version: 6.00 Build 0)  -->
<!DOCTYPE svg PUBLIC "-//W3C//DTD SVG 1.1//EN" "http://www.w3.org/Graphics/SVG/1.1/DTD/svg11.dtd">
<svg version="1.1" id="Layer_1" xmlns="http://www.w3.org/2000/svg" xmlns:xlink="http://www.w3.org/1999/xlink" x="0px" y="0px"
	 width="120px" height="120px" viewBox="-28 -28 120 120" enable-background="new -28 -28 120 120" xml:space="preserve">
<path fill="#FFFFFF" d="M32.142-27.188c-32.59,0-59.003,26.414-59.003,59.003s26.413,58.997,59.003,58.997
	c32.579,0,58.997-26.406,58.997-58.995S64.721-27.188,32.142-27.188z M32.142-24.25c18.027,0.031,34.051,8.543,44.299,21.767
	l-44.354,24.66L-12.327-2.286C-2.086-15.62,14.001-24.219,32.142-24.25z M22.461,30.952l9.625-5.331l9.607,5.331l-9.607,5.604
	L22.461,30.952z M41.693,45.648l-9.607,5.327l-9.625-5.327l9.625-5.612L41.693,45.648z M-23.936,31.815
	c0.026-11.751,3.65-22.634,9.816-31.635l43.085,23.714l-10.286,5.7c-0.476,0.269-0.771,0.76-0.771,1.31
	c-0.008,0.535,0.273,1.038,0.75,1.312l10.425,6.074l-10.425,6.088c-0.477,0.274-0.758,0.78-0.75,1.315
	c0,0.54,0.295,1.047,0.771,1.309l10.286,5.7l-35.36,19.781C-17.176,62.284-23.9,47.842-23.936,31.815z M32.142,87.884
	C18.353,87.854,5.741,82.861-4.016,74.61l36.102-20.192l36.062,20.315C58.416,82.911,45.852,87.858,32.142,87.884z M70.533,72.617
	L35.185,52.701l10.281-5.699c0.487-0.263,0.781-0.766,0.781-1.308c0.016-0.534-0.278-1.041-0.745-1.315l-10.425-6.09l10.425-6.072
	c0.467-0.275,0.761-0.777,0.745-1.312c0-0.546-0.294-1.038-0.781-1.31l-10.281-5.7L78.246-0.036
	c6.259,9.054,9.938,20.01,9.962,31.853C88.173,47.913,81.386,62.397,70.533,72.617z M75.528,26.266h-2.167
	c-0.109,0-0.241,0.132-0.241,0.244c-1.725,2.092-5.002,6.219-5.646,7.031c-0.646-0.812-4.025-5.015-5.873-7.16
	c0.028,0.017-0.027-0.115-0.162-0.115h-2.189c-0.1,0-0.239,0.132-0.239,0.244v16.281C59.01,42.9,59.159,43,59.249,43h2.147
	c0.1,0,0.232-0.141,0.232-0.236V30.179c1.939,2.297,3.843,4.637,5.718,6.961l0.183,0.054c1.83-2.009,4.56-5.504,5.591-6.838v12.435
	C73.12,42.9,73.27,43,73.365,43h2.144c0.102,0,0.242-0.141,0.242-0.236V26.477C75.747,26.445,75.647,26.266,75.528,26.266z
	 M4.851,26.169H2.678c-0.111,0-0.244,0.132-0.244,0.238c-1.723,2.093-4.999,6.221-5.639,7.034c-0.655-0.813-4.042-5.015-5.883-7.154
	c0.03,0-0.025-0.118-0.152-0.118h-2.195c-0.11,0-0.244,0.132-0.244,0.238l-0.007,16.283c0.007,0.111,0.157,0.214,0.251,0.214h2.134
	c0.112,0,0.244-0.125,0.244-0.227V30.083c1.931,2.301,3.843,4.637,5.71,6.96l0.19,0.051c1.83-2.002,4.551-5.499,5.592-6.829v12.423
	c0,0.109,0.149,0.214,0.244,0.214h2.141c0.104,0,0.246-0.123,0.246-0.227V26.379C5.067,26.351,4.96,26.169,4.851,26.169z
	 M35.6,5.032c0.027,0-0.022,0.144,0.223,0.204h2.316c0.031,0,0.056,0,0.056,0c0.117,0,0.194-0.145,0.194-0.188l-0.123-0.054
	l0.136,0.046l5.146-16.545h-0.195c0,0-1.646,0-2.513,0l-0.284,0.149c-0.441,1.463-2.846,9.316-3.436,11.287
	c-0.519-1.713-2.394-7.859-3.509-11.059c-0.93-0.103-1.883-0.103-2.706-0.103l-0.234,0.197c-1.103,3.586-3.174,10.412-3.505,11.482
	l-3.528-11.854c-0.139-0.1-0.972-0.109-1.798-0.109c-0.398,0-0.81,0-1.115,0.008c-0.12,0-0.173,0.163-0.173,0.196
	c0,0.125,0.045,0.219,0.045,0.227C21.84-7.429,25.49,4.037,25.836,5.06c-0.005-0.032-0.005,0.024-0.005,0.024
	c0,0.033,0.131,0.149,0.152,0.149h2.571c0.106,0,0.173-0.166,0.173-0.181c1.041-3.228,3.064-10.024,3.432-11.267L35.6,5.032z"/>
</svg>
